<?xml version="1.0" encoding="UTF-8" standalone="no"?>
<!-- Created with Inkscape (http://www.inkscape.org/) -->

<svg
   xmlns:dc="http://purl.org/dc/elements/1.1/"
   xmlns:cc="http://creativecommons.org/ns#"
   xmlns:rdf="http://www.w3.org/1999/02/22-rdf-syntax-ns#"
   xmlns:svg="http://www.w3.org/2000/svg"
   xmlns="http://www.w3.org/2000/svg"
   xmlns:sodipodi="http://sodipodi.sourceforge.net/DTD/sodipodi-0.dtd"
   xmlns:inkscape="http://www.inkscape.org/namespaces/inkscape"
   width="210mm"
   height="297mm"
   viewBox="0 0 210 297"
   version="1.1"
   id="svg8"
   inkscape:version="0.92.1 15371"
   sodipodi:docname="logo.svg">
  <defs
     id="defs2">
    <clipPath
       id="clipPath3696"
       clipPathUnits="userSpaceOnUse">
      <path
         inkscape:connector-curvature="0"
         id="path3694"
         d="M 0,841.89 H 595.28 V 0 H 0 Z" />
    </clipPath>
    <clipPath
       id="clipPath3760"
       clipPathUnits="userSpaceOnUse">
      <path
         inkscape:connector-curvature="0"
         id="path3758"
         d="M 0,841.89 H 595.28 V 0 H 0 Z" />
    </clipPath>
    <clipPath
       id="clipPath3845"
       clipPathUnits="userSpaceOnUse">
      <path
         inkscape:connector-curvature="0"
         id="path3843"
         d="M 0,841.89 H 595.28 V 0 H 0 Z" />
    </clipPath>
    <clipPath
       id="clipPath3909"
       clipPathUnits="userSpaceOnUse">
      <path
         inkscape:connector-curvature="0"
         id="path3907"
         d="M 0,841.89 H 595.28 V 0 H 0 Z" />
    </clipPath>
  </defs>
  <sodipodi:namedview
     id="base"
     pagecolor="#ffffff"
     bordercolor="#666666"
     borderopacity="1.0"
     inkscape:pageopacity="0.0"
     inkscape:pageshadow="2"
     inkscape:zoom="0.35"
     inkscape:cx="400"
     inkscape:cy="560"
     inkscape:document-units="mm"
     inkscape:current-layer="g3837"
     showgrid="false"
     inkscape:window-width="1535"
     inkscape:window-height="876"
     inkscape:window-x="65"
     inkscape:window-y="24"
     inkscape:window-maximized="1" />
  <metadata
     id="metadata5">
    <rdf:RDF>
      <cc:Work
         rdf:about="">
        <dc:format>image/svg+xml</dc:format>
        <dc:type
           rdf:resource="http://purl.org/dc/dcmitype/StillImage" />
        <dc:title></dc:title>
      </cc:Work>
    </rdf:RDF>
  </metadata>
  <g
     inkscape:label="Calque 1"
     inkscape:groupmode="layer"
     id="layer1">
    <g
       transform="matrix(0.35277777,0,0,-0.35277777,5.1825086,245.35284)"
       inkscape:label="logo"
       id="g3837">
      <g
         id="g3839"
         style="fill:#88aa00">
        <g
           clip-path="url(#clipPath3845)"
           id="g3841"
           style="fill:#88aa00">
          <g
             transform="translate(432.4941,234.496)"
             id="g3847"
             style="fill:#88aa00">
            <path
               inkscape:connector-curvature="0"
               id="path3849"
               style="fill:#88aa00;fill-opacity:1;fill-rule:nonzero;stroke:none"
               d="m 0,0 c 0,-83.649 -67.806,-151.458 -151.454,-151.458 -83.644,0 -151.453,67.809 -151.453,151.458 0,83.649 67.809,151.458 151.453,151.458 C -67.806,151.458 0,83.649 0,0" />
          </g>
          <g
             transform="translate(432.4941,234.496)"
             id="g3851"
             style="fill:#88aa00">
            <path
               inkscape:connector-curvature="0"
               id="path3853"
               style="fill:#88aa00;fill-opacity:1;fill-rule:nonzero;stroke:none"
               d="m 0,0 c 0,-83.649 -67.806,-151.458 -151.454,-151.458 -83.644,0 -151.453,67.809 -151.453,151.458 0,83.649 67.809,151.458 151.453,151.458 C -67.806,151.458 0,83.649 0,0" />
          </g>
          <g
             transform="translate(432.4941,234.496)"
             id="g3855"
             style="fill:#88aa00">
            <path
               inkscape:connector-curvature="0"
               id="path3857"
               style="fill:#88aa00;fill-opacity:1;fill-rule:nonzero;stroke:none"
               d="m 0,0 c 0,-83.649 -67.806,-151.458 -151.454,-151.458 -83.644,0 -151.453,67.809 -151.453,151.458 0,83.649 67.809,151.458 151.453,151.458 C -67.806,151.458 0,83.649 0,0" />
          </g>
        </g>
      </g>
      <text
         id="text3861"
         style="font-variant:normal;font-weight:normal;font-stretch:normal;font-size:52.99982834px;font-family:'Croissant One';-inkscape-font-specification:CroissantOne-Regular;writing-mode:lr-tb;fill:#e6aa24;fill-opacity:1;fill-rule:nonzero;stroke:none"
         transform="matrix(0.48791101,0.87289338,0.87289338,-0.48791101,139.6849,292.1013)">
        <tspan
           id="tspan3859"
           y="0"
           x="0"
           style="fill:#88aa00">R</tspan>
      </text>
      <text
         id="text3865"
         style="font-variant:normal;font-weight:normal;font-stretch:normal;font-size:52.99990082px;font-family:'Croissant One';-inkscape-font-specification:CroissantOne-Regular;writing-mode:lr-tb;fill:#e6aa24;fill-opacity:1;fill-rule:nonzero;stroke:none"
         transform="matrix(0.66628239,0.74569952,0.74569952,-0.66628239,156.766,322.6638)">
        <tspan
           id="tspan3863"
           y="0"
           x="0"
           style="fill:#88aa00">E</tspan>
      </text>
      <text
         id="text3869"
         style="font-variant:normal;font-weight:normal;font-stretch:normal;font-size:52.9998703px;font-family:'Croissant One';-inkscape-font-specification:CroissantOne-Regular;writing-mode:lr-tb;fill:#e6aa24;fill-opacity:1;fill-rule:nonzero;stroke:none"
         transform="matrix(0.79877933,0.60162412,0.60162412,-0.79877933,177.8966,346.3334)">
        <tspan
           id="tspan3867"
           y="0"
           x="0"
           style="fill:#88aa00">S</tspan>
      </text>
      <text
         id="text3873"
         style="font-variant:normal;font-weight:normal;font-stretch:normal;font-size:52.99985504px;font-family:'Croissant One';-inkscape-font-specification:CroissantOne-Regular;writing-mode:lr-tb;fill:#e6aa24;fill-opacity:1;fill-rule:nonzero;stroke:none"
         transform="matrix(0.90133079,0.43313139,0.43313139,-0.90133079,200.5287,363.7533)">
        <tspan
           id="tspan3871"
           y="0"
           x="0"
           style="fill:#88aa00">T</tspan>
      </text>
      <text
         id="text3877"
         style="font-variant:normal;font-weight:normal;font-stretch:normal;font-size:52.99990463px;font-family:'Croissant One';-inkscape-font-specification:CroissantOne-Regular;writing-mode:lr-tb;fill:#e6aa24;fill-opacity:1;fill-rule:nonzero;stroke:none"
         transform="matrix(0.97100553,0.23905704,0.23905704,-0.97100553,227.7063,377.2103)">
        <tspan
           id="tspan3875"
           y="0"
           x="0"
           style="fill:#88aa00">A</tspan>
      </text>
      <text
         id="text3881"
         style="font-variant:normal;font-weight:normal;font-stretch:normal;font-size:52.99987411px;font-family:'Croissant One';-inkscape-font-specification:CroissantOne-Regular;writing-mode:lr-tb;fill:#e6aa24;fill-opacity:1;fill-rule:nonzero;stroke:none"
         transform="matrix(0.99983822,0.01798684,0.01798684,-0.99983822,259.6334,385.4097)">
        <tspan
           id="tspan3879"
           y="0"
           x="0"
           style="fill:#88aa00">U</tspan>
      </text>
      <text
         id="text3885"
         style="font-variant:normal;font-weight:normal;font-stretch:normal;font-size:52.99982452px;font-family:'Croissant One';-inkscape-font-specification:CroissantOne-Regular;writing-mode:lr-tb;fill:#e6aa24;fill-opacity:1;fill-rule:nonzero;stroke:none"
         transform="matrix(0.97775794,-0.20973654,-0.20973654,-0.97775794,294.8336,386.2483)">
        <tspan
           id="tspan3883"
           y="0"
           x="0"
           style="fill:#88aa00">R</tspan>
      </text>
      <text
         id="text3889"
         style="font-variant:normal;font-weight:normal;font-stretch:normal;font-size:52.99984741px;font-family:'Croissant One';-inkscape-font-specification:CroissantOne-Regular;writing-mode:lr-tb;fill:#e6aa24;fill-opacity:1;fill-rule:nonzero;stroke:none"
         transform="matrix(0.90687431,-0.42140121,-0.42140121,-0.90687431,329.0381,379.0138)">
        <tspan
           id="tspan3887"
           y="0"
           x="0"
           style="fill:#88aa00">A</tspan>
      </text>
      <text
         id="text3893"
         style="font-variant:normal;font-weight:normal;font-stretch:normal;font-size:52.99982452px;font-family:'Croissant One';-inkscape-font-specification:CroissantOne-Regular;writing-mode:lr-tb;fill:#e6aa24;fill-opacity:1;fill-rule:nonzero;stroke:none"
         transform="matrix(0.7827007,-0.62239828,-0.62239828,-0.7827007,359.0942,365.6861)">
        <tspan
           id="tspan3891"
           y="0"
           x="0"
           style="fill:#88aa00">N</tspan>
      </text>
      <text
         id="text3897"
         style="font-variant:normal;font-weight:normal;font-stretch:normal;font-size:52.99989319px;font-family:'Croissant One';-inkscape-font-specification:CroissantOne-Regular;writing-mode:lr-tb;fill:#e6aa24;fill-opacity:1;fill-rule:nonzero;stroke:none"
         transform="matrix(0.62236161,-0.78272985,-0.78272985,-0.62236161,389.3864,341.2933)">
        <tspan
           id="tspan3895"
           y="0"
           x="0"
           style="fill:#88aa00">T</tspan>
      </text>
      <text
         id="text3901"
         style="font-variant:normal;font-weight:normal;font-stretch:normal;font-size:52.99988556px;font-family:'Croissant One';-inkscape-font-specification:CroissantOne-Regular;writing-mode:lr-tb;fill:#e6aa24;fill-opacity:1;fill-rule:nonzero;stroke:none"
         transform="matrix(0.45687268,-0.8895321,-0.8895321,-0.45687268,408.8234,316.9128)">
        <tspan
           id="tspan3899"
           y="0"
           x="0"
           style="fill:#88aa00">S</tspan>
      </text>
      <g
         id="g3903">
        <g
           clip-path="url(#clipPath3909)"
           id="g3905">
          <g
             transform="translate(337.3416,200.7965)"
             id="g3911">
            <path
               inkscape:connector-curvature="0"
               id="path3913"
               style="fill:#ffffff;fill-opacity:1;fill-rule:nonzero;stroke:none"
               d="m 0,0 c -1.566,2.296 -6.22,7.471 -16.583,8.454 0,0 7.319,0.346 14.819,-4.938 C -0.72,2.78 1.573,0.918 3.547,1.265 5.733,1.65 9.391,2.752 18.176,5.485 10.479,2.559 4.27,0.205 1.888,-0.654 1.094,-0.94 0.463,-0.673 0,0 m -166.729,-24.542 c 4.891,0.974 6.544,0.871 6.544,0.871 0,0 -8.056,-1.618 -11.918,-3.747 -3.354,-1.71 -6.73,-4.231 -11.179,-10.576 3.457,8.298 10.772,12.295 16.553,13.452 M 1.536,-1.92 c 8.419,3.051 65.621,24.358 65.621,24.358 l 0.009,0.308 -0.171,0.236 -54.899,-13.22 c 0,0 -0.856,-0.223 -1.105,0.612 -0.246,0.835 0.597,1.099 0.597,1.099 l 53.15,19.042 0.038,0.323 -0.203,0.257 L 9.66,18.061 c 0,0 -0.869,-0.233 -1.095,0.53 -0.229,0.764 0.626,1.063 0.626,1.063 L 62.355,38.573 62.372,38.89 62.188,39.157 7.226,26.229 c 0,0 -0.861,-0.214 -1.097,0.597 -0.24,0.81 0.597,1.122 0.597,1.122 l 53.258,18.755 0.006,0.295 -0.168,0.249 c 0,0 -59.589,-13.227 -68.316,-15.254 -0.821,-0.188 -1.199,-0.753 -1.227,-1.576 -0.067,-2.78 -1.52,-9.758 -9.674,-16.217 -8.343,-6.926 -123.63,-32.091 -148.732,-37.107 -6.235,-1.247 -14.141,-6.146 -17.178,-15.826 7.808,-6.465 17.105,-6.272 23.021,-3.923 23.79,9.436 134.22,51.026 144.986,49.742 C -6.934,6.11 -1.93,1.035 -0.356,-1.26 0.108,-1.937 0.741,-2.207 1.536,-1.92" />
          </g>
          <g
             transform="translate(399.7523,160.9712)"
             id="g3915">
            <path
               inkscape:connector-curvature="0"
               id="path3917"
               style="fill:#ffffff;fill-opacity:1;fill-rule:nonzero;stroke:none"
               d="m 0,0 c -4.133,6.56 -7.374,9.243 -10.644,11.116 -3.751,2.312 -11.716,4.327 -11.716,4.327 0,0 1.65,0.014 6.482,-1.193 C -10.156,12.806 -3.045,8.457 0,0 m -126.88,38.994 c -0.542,-1.551 -2.313,-1.379 -2.94,-1.161 0,0 1.095,0.572 1.532,1.813 l 2.898,8.273 c 0.367,1.041 1.807,0.486 1.44,-0.542 z m -104.563,32.813 c 0,0 -1.281,0.598 -3.688,3.114 -5.973,6.248 -7.187,10.813 -5.116,13.008 -1.09,-2.671 0.3,-5.722 2.282,-8.63 2.715,-3.979 6.522,-7.492 6.522,-7.492 M -14.117,15.568 c -12.718,3.195 -64.073,18.063 -111.284,33.927 -46.534,20.265 -100.101,35.561 -108.347,39.067 -8.861,3.762 -12.777,-3.1 -3.613,-13.391 15.099,-16.979 71.675,-41.083 105.933,-38.209 0.773,-0.039 1.109,10e-4 1.829,-0.084 15.114,-1.839 86.439,-30.633 108.676,-40.747 5.786,-2.635 15.07,-3.282 23.185,2.789 L 2.27,-1.07 C -0.294,8.745 -7.951,14.018 -14.117,15.568" />
          </g>
        </g>
      </g>
      <text
         id="text3921"
         style="font-variant:normal;font-weight:normal;font-stretch:normal;font-size:43px;font-family:'Croissant One';-inkscape-font-specification:CroissantOne-Regular;writing-mode:lr-tb;fill:#ffffff;fill-opacity:1;fill-rule:nonzero;stroke:none"
         transform="matrix(1,0,0,-1,169.2998,641.4893)">
        <tspan
           id="tspan3919"
           sodipodi:role="line"
           y="0"
           x="0 28.208 46.439999 73.401001 104.404 121.561 151.532 181.933 207.604">Atypiques</tspan>
      </text>
      <text
         id="text3925"
         style="font-variant:normal;font-weight:normal;font-stretch:normal;font-size:51.39229965px;font-family:'Croissant One';-inkscape-font-specification:CroissantOne-Regular;writing-mode:lr-tb;fill:#ffffff;fill-opacity:1;fill-rule:nonzero;stroke:none"
         transform="matrix(1,0,0,-1,147.0522,271.9092)">
        <tspan
           id="tspan3923"
           sodipodi:role="line"
           y="0"
           x="0 33.713348 55.503685 87.726654 124.7805 145.28603 181.10646 217.44083 248.12202">Atypiques</tspan>
      </text>
      <text
         id="text3929"
         style="font-variant:normal;font-weight:normal;font-stretch:normal;font-size:38.70470047px;font-family:'Croissant One';-inkscape-font-specification:CroissantOne-Regular;writing-mode:lr-tb;fill:#ffffff;fill-opacity:1;fill-rule:nonzero;stroke:none"
         transform="matrix(1,0,0,-1,377.3921,177.5273)">
        <tspan
           id="tspan3927"
           y="0"
           x="0">®</tspan>
      </text>
    </g>
  </g>
</svg>
