<?xml version="1.0" encoding="utf-8"?>
<!-- Generator: Adobe Illustrator 19.0.0, SVG Export Plug-In . SVG Version: 6.00 Build 0)  -->
<svg version="1.1" id="Calque_1" xmlns="http://www.w3.org/2000/svg" xmlns:xlink="http://www.w3.org/1999/xlink" x="0px" y="0px"
	 viewBox="0 0 595.3 841.9" style="enable-background:new 0 0 595.3 841.9;" xml:space="preserve">
<style type="text/css">
	.st0{fill:#EBB326;}
	.st1{fill:#768A29;}
	.st2{fill:#FFFFFF;}
	.st3{font-family:'CroissantOne-Regular';}
	.st4{font-size:38.7047px;}
</style>
<g id="XMLID_391_">
	<circle id="XMLID_392_" class="st0" cx="298" cy="446.4" r="151.5"/>
</g>
<g id="XMLID_393_">
	<circle id="XMLID_394_" class="st0" cx="298" cy="446.4" r="151.5"/>
</g>
<g id="XMLID_395_">
	<circle id="XMLID_396_" class="st1" cx="298" cy="446.4" r="151.5"/>
</g>
<g id="XMLID_422_">
	<g id="XMLID_444_">
		<path id="XMLID_445_" class="st1" d="M98.7,453.4l-3-0.2l1.2-16.4c0.9-12.1,4.2-19.5,10-22.4c2.3-1.1,5-1.5,8.1-1.3
			c7.3,0.5,11.8,5,13.7,13.4c1.3-3.1,3.6-5,6.9-5.8l7.6-1.7c1.3-0.3,2.2-0.6,2.7-1.2s0.8-1.4,0.9-2.7c0.1-1.3-0.5-2.9-1.8-4.7
			l1.9-1.2c3.3,4.2,4.9,8.6,4.5,13.1c-0.2,2.3-0.7,4.1-1.6,5.4c-0.9,1.3-2.4,2.2-4.4,2.7l-11.7,2.7c-1.5,0.3-2.5,1-3.1,1.9
			c-0.6,0.9-1,2.5-1.2,4.9L146,441l0.4-6l3,0.2l-1.5,21.6l-3-0.2l0.3-4.5L99,448.9L98.7,453.4z M99.8,437l-0.1,0.7l26.6,1.9l0.1-0.7
			c0.3-3.9-0.6-7.3-2.8-10c-2.1-2.7-5.3-4.3-9.5-4.6c-4.2-0.3-7.6,0.8-10.1,3.2C101.5,429.9,100.1,433,99.8,437z"/>
		<path id="XMLID_448_" class="st1" d="M165,377.7l-12.3,31.2l-2.8-1.1l1.6-4.2l-43.1-17l-1.6,4.2l-2.8-1.1l11.8-29.8
			c0.4-1,0.7-1.8,1-2.2s0.7-0.8,1.3-1.1c0.6-0.2,1.4-0.2,2.3,0.2l10.9,6.5l-1.1,2.7l-7.4-1.3c-2.3-0.4-3.9-0.2-5,0.7
			c-1,0.9-2.2,2.9-3.4,5.9l-1.9,4.9l23.8,9.4l6.3-16l3.1,1.2l-6.3,16l16.2,6.4l2.5-6.3c1.2-3,1.7-5.2,1.5-6.6s-1.2-2.7-3.1-4
			l-5.6-3.8l1.1-2.7l11.7,2.5c0.9,0.4,1.5,0.8,1.8,1.4c0.3,0.6,0.4,1.1,0.2,1.7C165.7,375.9,165.4,376.6,165,377.7z"/>
		<path id="XMLID_459_" class="st1" d="M165.4,358.8c1.5,1.2,3.5,1.5,5.8,0.8c2.3-0.6,4.4-2.1,6.2-4.5c1.8-2.4,2.7-4.7,2.6-7
			c-0.1-2.3-1.1-4.1-3-5.6c-2.4-1.8-5.5-1.9-9.3-0.3l-11.4,5.2c-6.6,3-12.4,2.5-17.5-1.4c-3.2-2.5-5.1-5.8-5.6-10s1-8.6,4.6-13.3
			c2.4-3.2,5.4-5.7,8.8-7.6c3.4-1.9,6-2.2,7.8-0.8c0.7,0.5,1.3,1.3,1.8,2.4l3.3,7l-2.2,1.6l-5-3.8c-1.8-1.4-3.8-1.7-6-0.9
			c-2.2,0.8-4.2,2.2-5.8,4.4c-1.7,2.2-2.3,4.3-1.9,6.4c0.4,2.1,1.4,3.8,3,5c3.2,2.5,6.8,2.9,10.5,1.1l9.7-4.5
			c7.4-3.4,13.6-3.3,18.5,0.5c3.7,2.8,5.5,6.4,5.2,10.6c-0.2,4.2-2,8.5-5.3,12.8c-2.5,3.2-5.4,5.8-9,7.8c-3.5,2-6.2,2.3-7.9,1
			c-0.7-0.5-1.3-1.3-1.8-2.4l-3.3-7l2.2-1.6L165.4,358.8z"/>
		<path id="XMLID_461_" class="st1" d="M184.3,284l-0.6,0.4l27.7,37.1l6-4.5l1.8,2.4l-21,15.7l-1.8-2.4l6-4.5l-27.7-37.1l-0.6,0.4
			c-2.6,2-4.2,3.6-4.8,4.8c-0.6,1.3-0.4,2.9,0.6,5l3.2,6.8l-2.3,1.7l-9.1-8.9c-0.6-0.8-0.9-1.5-0.8-2.2c0.1-0.6,0.3-1.2,0.7-1.5
			c0.4-0.4,1-0.9,1.9-1.5l28-20.9c0.9-0.7,1.5-1.1,2-1.4c0.5-0.3,1-0.3,1.7-0.2c0.6,0.1,1.3,0.6,1.9,1.4l5.9,11.3l-2.3,1.7l-5.6-5
			c-1.7-1.5-3.2-2.2-4.6-2C188.9,280.9,186.9,282,184.3,284z"/>
		<path id="XMLID_463_" class="st1" d="M217.9,264.8l-1-2.8l16.7-6.2l31.1,41.1l3.5-1.3l1,2.8l-18.1,6.7l-1-2.8l4.1-1.5l-5.8-7.7
			l-19.1,7.1l0.7,9.6l4.1-1.5l1,2.8l-11.8,4.4l-1-2.8l3.5-1.3l-3-48.3L217.9,264.8z M227,264.9l2.2,31.8l17.1-6.3L227,264.9z"/>
		<path id="XMLID_466_" class="st1" d="M299.8,248l-0.1-3l14.2-0.6l0.1,3l-4.5,0.2l1.3,31.3c0.1,3.6-0.3,6.7-1.2,9.3
			c-1,2.6-2.4,4.7-4.2,6.2c-3.4,2.7-7.8,4.2-13.1,4.4c-5.3,0.2-9.8-0.9-13.5-3.4c-2-1.3-3.6-3.2-4.8-5.7c-1.2-2.5-1.9-5.6-2-9.3
			l-1.3-31.2l-4.5,0.2l-0.1-3l20.2-0.8l0.1,3l-4.5,0.2l1.4,33.6c0.2,3.9,1.3,6.8,3.5,8.8c2.2,2,4.8,2.9,7.9,2.8
			c3.1-0.1,5.7-1.3,7.9-3.5c2.2-2.2,3.3-5.2,3.1-9.1l-1.4-33.6L299.8,248z"/>
		<path id="XMLID_468_" class="st1" d="M332.9,250.3l0.8-2.9l15.8,4.6c11.6,3.4,18.2,8.2,19.8,14.4c0.6,2.5,0.4,5.2-0.4,8.2
			c-2,7-7.3,10.5-16,10.6c2.7,1.9,4.1,4.5,4.2,8l0.1,7.8c0,1.3,0.2,2.3,0.6,2.9s1.2,1.1,2.4,1.5c1.2,0.4,2.9,0.1,5-0.8l0.8,2.1
			c-4.8,2.4-9.4,3-13.7,1.7c-2.2-0.6-3.9-1.5-5-2.7c-1.1-1.2-1.7-2.8-1.7-4.9l-0.2-12c0-1.5-0.4-2.7-1.2-3.5
			c-0.8-0.8-2.3-1.5-4.5-2.2l-4.6,16l5.7,1.7l-0.8,2.9l-20.8-6l0.8-2.9l4.3,1.2l12.9-44.5L332.9,250.3z M348.7,254.9l-0.7-0.2
			l-7.4,25.6l0.7,0.2c3.8,1.1,7.2,0.9,10.4-0.6c3.1-1.5,5.3-4.3,6.5-8.4c1.2-4.1,0.8-7.6-1-10.6C355.3,258,352.5,256,348.7,254.9z"
			/>
		<path id="XMLID_471_" class="st1" d="M398.9,275.5l1.7-2.5l14.8,9.9l-15.2,49.2l3.1,2.1l-1.7,2.5l-16-10.8l1.7-2.5l3.6,2.4
			l2.8-9.2l-16.9-11.4l-7.4,6.1l3.6,2.4l-1.7,2.5l-10.5-7.1l1.7-2.5l3.1,2.1l37.5-30.6L398.9,275.5z M404.1,282.9l-24.6,20.3
			l15.1,10.2L404.1,282.9z"/>
		<path id="XMLID_474_" class="st1" d="M402,337.3l2.4-1.8l2.7,3.6l37-28l-2.7-3.6l2.4-1.8l10.5,13.9l-20.7,42.4l31.2-23.6l-2.7-3.6
			l2.4-1.8l8.6,11.3l-2.4,1.8l-2.7-3.6l-39.3,29.8l-7.2-9.5l21.7-44.6l-32.9,24.9l2.7,3.6l-2.4,1.8L402,337.3z"/>
		<path id="XMLID_476_" class="st1" d="M487.7,388.9l-0.2-0.7l-43.9,14.9l2.4,7.1l-2.8,1l-8.4-24.8l2.8-1l2.4,7.1l43.9-14.9
			l-0.2-0.7c-1.1-3.1-2.1-5.1-3.1-6.1c-1-0.9-2.6-1.3-4.9-1l-7.5,1l-0.9-2.8l11.2-6c0.9-0.3,1.7-0.3,2.3-0.1c0.6,0.3,1,0.6,1.2,1.1
			c0.2,0.5,0.5,1.2,0.9,2.3l11.3,33.1c0.4,1,0.6,1.8,0.7,2.3c0.1,0.5,0,1.1-0.3,1.6c-0.3,0.6-0.9,1-1.9,1.3l-12.5,2.1l-0.9-2.8
			l6.5-3.8c2-1.1,3.1-2.4,3.3-3.8C489.2,394.2,488.8,392,487.7,388.9z"/>
		<path id="XMLID_478_" class="st1" d="M455.8,427.4c-1.9,0.1-3.6,1.1-4.9,3.1c-1.3,2-1.9,4.4-1.8,7.4s1,5.3,2.5,7
			c1.5,1.7,3.5,2.4,5.9,2.3c3-0.2,5.5-2.1,7.3-5.8l5.3-11.4c3.1-6.5,7.8-10,14.2-10.3c4.1-0.2,7.7,1.1,10.8,3.9
			c3.1,2.8,4.8,7.2,5.1,13.1c0.2,4-0.4,7.8-1.8,11.5s-3.2,5.6-5.4,5.7c-0.8,0-1.8-0.2-3-0.7l-7.1-3.2l0.7-2.7l6.3-0.3
			c2.2-0.1,4-1.2,5.1-3.2c1.2-2,1.7-4.4,1.6-7.1c-0.1-2.7-1-4.7-2.7-6.1c-1.7-1.4-3.5-2-5.6-1.9c-4.1,0.2-7,2.2-8.7,6l-4.5,9.7
			c-3.4,7.4-8.2,11.3-14.4,11.6c-4.7,0.2-8.3-1.3-10.9-4.7c-2.6-3.4-4-7.8-4.3-13.1c-0.2-4,0.4-8,1.8-11.8c1.4-3.8,3.2-5.8,5.4-5.9
			c0.8,0,1.8,0.2,3,0.7l7.1,3.2l-0.7,2.7L455.8,427.4z"/>
	</g>
</g>
<path id="XMLID_405_" class="st2" d="M355.9,482c8.4-3.1,65.6-24.4,65.6-24.4l0-0.3l-0.2-0.2l-54.9,13.2c0,0-0.9,0.2-1.1-0.6
	c-0.2-0.8,0.6-1.1,0.6-1.1l53.1-19l0-0.3l-0.2-0.3L364,462c0,0-0.9,0.2-1.1-0.5c-0.2-0.8,0.6-1.1,0.6-1.1l53.2-18.9l0-0.3l-0.2-0.3
	l-55,12.9c0,0-0.9,0.2-1.1-0.6c-0.2-0.8,0.6-1.1,0.6-1.1l53.3-18.8l0-0.3l-0.2-0.2c0,0-59.6,13.2-68.3,15.3
	c-0.8,0.2-1.2,0.8-1.2,1.6c-0.1,2.8-1.5,9.8-9.7,16.2c-8.3,6.9-123.6,32.1-148.7,37.1c-6.2,1.2-14.1,6.1-17.2,15.8l0,0
	c7.8,6.5,17.1,6.3,23,3.9c23.8-9.4,134.2-51,145-49.7c10.4,1,15.4,6.1,16.9,8.3C354.4,482,355.1,482.3,355.9,482z M187.6,504.6
	c4.9-1,6.5-0.9,6.5-0.9s-8.1,1.6-11.9,3.7c-3.4,1.7-6.7,4.2-11.2,10.6C174.5,509.8,181.8,505.8,187.6,504.6z M354.3,480.1
	c-1.6-2.3-6.2-7.5-16.6-8.5c0,0,7.3-0.3,14.8,4.9c1,0.7,3.3,2.6,5.3,2.3c2.2-0.4,5.8-1.5,14.6-4.2c-7.7,2.9-13.9,5.3-16.3,6.1
	C355.4,481,354.8,480.8,354.3,480.1z"/>
<path id="XMLID_409_" class="st2" d="M402.6,504.4c-12.7-3.2-64.1-18.1-111.3-33.9c-46.5-20.3-100.1-35.6-108.3-39.1
	c-8.9-3.8-12.8,3.1-3.6,13.4c15.1,17,71.7,41.1,105.9,38.2c0.8,0,1.1,0,1.8,0.1c15.1,1.8,86.4,30.6,108.7,40.7
	c5.8,2.6,15.1,3.3,23.2-2.8l0,0C416.5,511.2,408.8,505.9,402.6,504.4z M185.3,448.1c0,0-1.3-0.6-3.7-3.1c-6-6.2-7.2-10.8-5.1-13
	c-1.1,2.7,0.3,5.7,2.3,8.6C181.5,444.6,185.3,448.1,185.3,448.1z M289.9,480.9c-0.5,1.6-2.3,1.4-2.9,1.2c0,0,1.1-0.6,1.5-1.8
	l2.9-8.3c0.4-1,1.8-0.5,1.4,0.5L289.9,480.9z M416.8,519.9c-4.1-6.6-7.4-9.2-10.6-11.1c-3.8-2.3-11.7-4.3-11.7-4.3s1.7,0,6.5,1.2
	C406.6,507.1,413.7,511.5,416.8,519.9z"/>
<g id="XMLID_423_">
	<path id="XMLID_424_" class="st2" d="M172.7,375.1V373H185l10.2,33.9h2.6v2.1h-13.3v-2.1h3l-1.9-6.3h-14l-1.9,6.3h3v2.1h-8.7v-2.1
		h2.6l9.6-31.9H172.7z M178.5,377.3l-6.2,21h12.5L178.5,377.3z"/>
	<path id="XMLID_482_" class="st2" d="M199.8,386.1V384h4.2v-7.4h7.7v7.4h5.8v2.1h-5.8v17.2c0,0.9,0.2,1.7,0.7,2.2
		c0.4,0.5,1.1,0.8,2.1,0.8c0.9,0,2-0.5,3.2-1.5l0.9,1.2c-2.7,2.5-5.5,3.8-8.2,3.8c-4.2,0-6.3-2.5-6.3-7.6v-16.1H199.8z"/>
	<path id="XMLID_484_" class="st2" d="M224,383.4c1.5-0.6,3-0.9,4.5-0.9c1.5,0,2.7,0.3,3.7,0.9c1,0.6,1.4,1.3,1.4,2.2v15.6
		c0,1.1,0.3,1.9,1,2.5c0.7,0.6,1.5,0.8,2.6,0.8c2.2,0,4.1-0.9,5.6-2.8c1.6-1.9,2.3-4.3,2.3-7.2c0-1.6-0.3-3.4-1-5.2
		c-0.6,0.4-1.4,0.6-2.4,0.6c-1,0-1.8-0.4-2.6-1.2c-0.8-0.8-1.2-1.7-1.2-2.8s0.4-2,1.2-2.8c0.8-0.8,1.7-1.2,2.9-1.2
		c1.2,0,2.2,0.4,3,1.3c0.8,0.9,1.4,2,1.8,3.5c0.6,2.5,0.9,5.3,0.9,8.3s-0.4,6.1-1.1,9.1c-0.7,3-1.6,5.7-2.8,7.9
		c-1.1,2.2-2.4,4.1-3.9,5.7c-2.9,3.2-5.9,4.8-9,4.8c-0.8,0-1.5-0.2-2-0.5c-0.5-0.4-1.1-1-1.8-2l-2.7-3.7l1.3-1.4
		c1.6,0.3,3.1,0.4,4.3,0.4c3.8,0,7-1.2,9.4-3.6c2.4-2.4,4.4-6.4,5.8-11.9c-2.1,5.9-6,8.8-11.7,8.8c-2.2,0-4.1-0.7-5.6-2.2
		c-1.5-1.5-2.3-3.6-2.3-6.3V385c-1.9,0.5-3.3,1.3-4.3,2.5l-1.4-1.6C221.2,384.9,222.5,384.1,224,383.4z"/>
	<path id="XMLID_486_" class="st2" d="M258.2,383.3c3.2,0,5.9,0.9,8.2,2.6c1.8-2.3,4.2-3.4,7.1-3.4c3.9,0,6.9,1.3,9,3.8
		c2.1,2.6,3.1,5.8,3.1,9.8s-1.1,7.2-3.3,9.8c-2.2,2.6-5.3,3.9-9.3,3.9c-2.9,0-5.3-1.3-7-4v16h-7.7v-36.5c-1.5,0-2.9,0.3-4.1,0.8
		l-0.7-1.9C254.8,383.6,256.4,383.3,258.2,383.3z M276.1,403.9c1-1.9,1.4-4.5,1.4-7.8s-0.5-5.9-1.4-7.8c-1-1.9-2.4-2.9-4.4-2.9
		c-2,0-3.5,1-4.5,2.9c-1,1.9-1.6,4.5-1.6,7.8s0.5,5.9,1.6,7.8c1,1.9,2.6,2.9,4.5,2.9C273.7,406.8,275.1,405.9,276.1,403.9z"/>
	<path id="XMLID_489_" class="st2" d="M298.7,382.5c3.2,0,4.8,1.4,4.8,4.2v16.6c0,0.9,0.2,1.7,0.7,2.2c0.4,0.5,1.1,0.8,2.1,0.8
		c0.9,0,2-0.5,3.2-1.5l0.9,1.2c-2.7,2.5-5.5,3.8-8.2,3.8c-4.2,0-6.3-2.5-6.3-7.6V385c-1.9,0.5-3.3,1.3-4.3,2.5l-1.4-1.6
		c1-1,2.3-1.8,3.8-2.5C295.4,382.8,297,382.5,298.7,382.5z M296.8,377.5c-0.8-0.8-1.2-1.8-1.2-2.9s0.4-2.1,1.2-2.9
		c0.8-0.8,1.8-1.2,2.9-1.2c1.1,0,2.1,0.4,2.9,1.2c0.8,0.8,1.2,1.8,1.2,2.9s-0.4,2.1-1.2,2.9c-0.8,0.8-1.8,1.2-2.9,1.2
		C298.5,378.7,297.6,378.3,296.8,377.5z"/>
	<path id="XMLID_492_" class="st2" d="M340,421.8h-7.7v-16.1c-1.8,2.7-4.3,4.1-7.6,4.1c-3.9,0-6.9-1.3-9-3.8
		c-2.1-2.6-3.1-5.8-3.1-9.8s1.1-7.2,3.3-9.8c2.2-2.6,5.3-3.9,9.3-3.9c3,0,5.4,1.2,7,3.6v-2.9h7.7V421.8z M322.1,388.3
		c-1,1.9-1.4,4.5-1.4,7.8s0.5,5.9,1.4,7.8s2.4,2.9,4.4,2.9c2,0,3.5-1,4.5-2.9c1-1.9,1.6-4.5,1.6-7.8s-0.5-5.9-1.6-7.8
		s-2.6-2.9-4.5-2.9C324.5,385.4,323,386.4,322.1,388.3z"/>
	<path id="XMLID_495_" class="st2" d="M359.2,385.6v17.6c0,1.1,0.3,1.9,1,2.5c0.7,0.6,1.6,0.9,2.7,0.9c1.2,0,2.3-0.5,3.4-1.4
		c1.1-1,1.6-2.2,1.6-3.8v-18.1h7.7v20c0,0.9,0.2,1.7,0.7,2.2c0.4,0.5,1.1,0.8,2.1,0.8s2-0.5,3.2-1.5l0.9,1.2
		c-2.7,2.5-5.5,3.8-8.4,3.8c-2.8,0-4.7-1.3-5.7-3.8c-1.3,1.4-2.7,2.4-4.1,3c-1.4,0.6-3.2,0.8-5.4,0.8s-4-0.7-5.3-2
		c-1.4-1.4-2-3.2-2-5.5V385c-1.9,0.5-3.3,1.3-4.3,2.5l-1.4-1.6c1-1,2.3-1.8,3.8-2.5s3-0.9,4.5-0.9s2.7,0.3,3.7,0.9
		C358.8,384,359.2,384.8,359.2,385.6z"/>
	<path id="XMLID_497_" class="st2" d="M400.7,394.6c1.2-1.5,1.8-3,1.8-4.5c0-1.5-0.3-2.7-1-3.5s-1.7-1.2-3-1.2s-2.6,1-3.9,2.9
		s-1.8,4.5-1.8,7.7c0,3.2,0.6,5.8,1.7,7.8c1.2,2,2.8,2.9,5,2.9c3.3,0,6.1-1.3,8.4-3.9l1.4,0.9c-1.2,1.8-2.7,3.3-4.6,4.4
		c-1.9,1.1-4.1,1.7-6.5,1.7c-4.1,0-7.3-1.3-9.8-4c-2.4-2.7-3.6-5.9-3.6-9.7c0-3.8,1.3-7,3.9-9.6c2.6-2.6,6.2-3.9,10.8-3.9
		c3,0,5.4,0.7,7.1,2.1c1.7,1.4,2.6,3.2,2.6,5.3c0,2.2-1,4.2-2.9,6c-1.9,1.8-4.4,2.8-7.5,2.8c-1.1,0-2.1-0.1-3.1-0.4l-0.1-1.2
		C397.8,396.9,399.5,396.1,400.7,394.6z"/>
	<path id="XMLID_499_" class="st2" d="M421.2,387.5c-0.8-1.3-1.2-2.4-1.2-3.4c0-1,0.4-1.9,1.2-2.6c0.8-0.8,1.7-1.2,2.8-1.2
		c1.1,0,2,0.4,2.8,1.2c0.8,0.8,1.2,1.7,1.2,2.7c0,1.1-0.5,2.2-1.6,3.4c2.8,2.1,5,4.1,6.5,6c1.5,2,2.3,4.2,2.3,6.8
		c0,2.6-1,4.8-2.9,6.6c-2,1.8-4.7,2.7-8.3,2.7c-1.6,0-3.3-0.4-5-1.1s-2.9-1.6-3.8-2.7l1.2-1.2c1.5,1.2,3.1,1.8,4.9,1.8
		c1.7,0,3.2-0.5,4.3-1.4c1.1-0.9,1.7-2.4,1.7-4.4c0-3.2-1.2-6.4-3.5-9.9l-7.8,9.7l-1.3-1.1C417.1,395.3,419.3,391.3,421.2,387.5z"/>
</g>
<text id="XMLID_397_" transform="matrix(1 0 0 1 394.3923 503.362)" class="st2 st3 st4">®</text>
</svg>
