<?xml version="1.0" encoding="utf-8"?>
<!-- Generator: Adobe Illustrator 19.0.0, SVG Export Plug-In . SVG Version: 6.00 Build 0)  -->
<svg version="1.1" id="Calque_1" xmlns="http://www.w3.org/2000/svg" xmlns:xlink="http://www.w3.org/1999/xlink" x="0px" y="0px"
	 viewBox="-96 341.7 418.2 111.3" style="enable-background:new -96 341.7 418.2 111.3;" xml:space="preserve">
<style type="text/css">
	.st0{fill:#FFFFFF;}
</style>
<g id="XMLID_81_">
	<path id="XMLID_82_" class="st0" d="M-4.5,343.8v-2.1H6.8c8.3,0,13.6,1.9,15.8,5.8c0.9,1.5,1.3,3.3,1.3,5.5c0,5-2.8,8.4-8.5,10.1
		c2.2,0.7,3.6,2.2,4.3,4.5l1.5,5.1c0.2,0.9,0.5,1.5,0.9,1.8c0.4,0.3,1,0.5,1.9,0.5s1.9-0.5,3.1-1.5l0.9,1.2
		c-2.7,2.5-5.7,3.8-8.7,3.8c-1.6,0-2.8-0.3-3.8-0.8s-1.6-1.5-2.1-2.9l-2.4-7.9c-0.3-1-0.8-1.7-1.4-2.1c-0.7-0.4-1.8-0.6-3.4-0.6
		v11.5h4.1v2H-4.5v-2.1h3.1v-31.8H-4.5z M6.8,343.8H6.3v18.3h0.5c2.7,0,5-0.8,6.7-2.4c1.8-1.6,2.7-3.8,2.7-6.8s-0.9-5.2-2.7-6.8
		C11.7,344.6,9.5,343.8,6.8,343.8z"/>
	<path id="XMLID_85_" class="st0" d="M46.8,363.3c1.2-1.5,1.8-3,1.8-4.5s-0.3-2.7-1-3.5c-0.7-0.8-1.7-1.2-3-1.2
		c-1.4,0-2.6,1-3.9,2.9c-1.3,1.9-1.9,4.5-1.9,7.7s0.6,5.8,1.7,7.8c1.2,2,2.8,2.9,5,2.9c3.3,0,6.1-1.3,8.4-3.9l1.4,0.9
		c-1.2,1.8-2.7,3.3-4.6,4.4c-1.9,1.1-4.1,1.7-6.5,1.7c-4.1,0-7.3-1.3-9.8-4c-2.4-2.7-3.6-5.9-3.6-9.7c0-3.8,1.3-7,3.9-9.6
		s6.2-3.9,10.8-3.9c3,0,5.4,0.7,7.1,2.1c1.7,1.4,2.6,3.2,2.6,5.3c0,2.2-1,4.2-2.9,6s-4.4,2.8-7.5,2.8c-1.1,0-2.1-0.1-3.1-0.4
		l-0.1-1.2C43.9,365.6,45.6,364.7,46.8,363.3z"/>
	<path id="XMLID_87_" class="st0" d="M67.3,356.2c-0.8-1.3-1.2-2.4-1.2-3.4s0.4-1.9,1.2-2.6s1.7-1.2,2.8-1.2s2,0.4,2.8,1.2
		s1.2,1.7,1.2,2.7c0,1.1-0.5,2.2-1.6,3.4c2.8,2.1,5,4.1,6.5,6c1.5,2,2.3,4.2,2.3,6.8s-1,4.8-2.9,6.6c-2,1.8-4.7,2.7-8.3,2.7
		c-1.6,0-3.3-0.4-5-1.1c-1.7-0.7-2.9-1.6-3.8-2.7l1.2-1.2c1.5,1.2,3.1,1.8,4.9,1.8c1.7,0,3.2-0.5,4.3-1.4s1.7-2.4,1.7-4.4
		c0-3.2-1.2-6.4-3.5-9.9l-7.8,9.7l-1.3-1.1C63.2,364,65.4,360,67.3,356.2z"/>
	<path id="XMLID_89_" class="st0" d="M84.6,354.8v-2.1h4.2v-7.4h7.7v7.4h5.8v2.1h-5.8V372c0,0.9,0.2,1.7,0.7,2.2
		c0.4,0.5,1.1,0.8,2.1,0.8c0.9,0,2-0.5,3.2-1.5l0.9,1.2c-2.7,2.5-5.5,3.8-8.2,3.8c-4.2,0-6.3-2.5-6.3-7.6v-16.1H84.6z"/>
	<path id="XMLID_91_" class="st0" d="M135.1,352v20c0,0.9,0.2,1.7,0.7,2.2c0.4,0.5,1.1,0.8,2.1,0.8c0.9,0,2-0.5,3.2-1.5l0.9,1.2
		c-2.7,2.5-5.5,3.8-8.2,3.8c-3.3,0-5.3-1.5-6-4.6c-1.8,3-4.4,4.6-7.9,4.6c-3.9,0-6.9-1.3-9-3.8c-2.1-2.6-3.1-5.8-3.1-9.8
		s1.1-7.2,3.3-9.8s5.3-3.9,9.3-3.9c3,0,5.4,1.2,7,3.6v-2.9L135.1,352L135.1,352z M117.2,357c-1,1.9-1.4,4.5-1.4,7.8
		c0,3.3,0.5,5.9,1.4,7.8c1,1.9,2.4,2.9,4.4,2.9s3.5-1,4.5-2.9s1.6-4.5,1.6-7.8c0-3.3-0.5-5.9-1.6-7.8c-1-1.9-2.6-2.9-4.5-2.9
		C119.6,354.1,118.1,355.1,117.2,357z"/>
	<path id="XMLID_94_" class="st0" d="M155,354.3v17.6c0,1.1,0.3,1.9,1,2.5c0.7,0.6,1.6,0.9,2.7,0.9c1.2,0,2.3-0.5,3.4-1.4
		c1.1-1,1.6-2.2,1.6-3.8V352h7.7v20c0,0.9,0.2,1.7,0.7,2.2c0.4,0.5,1.1,0.8,2.1,0.8s2-0.5,3.2-1.5l0.9,1.2c-2.7,2.5-5.5,3.8-8.4,3.8
		c-2.8,0-4.7-1.3-5.7-3.8c-1.3,1.4-2.7,2.4-4.1,3s-3.2,0.8-5.4,0.8s-4-0.7-5.3-2c-1.4-1.4-2-3.2-2-5.5v-17.3
		c-1.9,0.5-3.3,1.3-4.3,2.5l-1.4-1.6c1-1,2.3-1.8,3.8-2.5c1.5-0.6,3-0.9,4.5-0.9s2.7,0.3,3.7,0.9C154.5,352.7,155,353.5,155,354.3z"
		/>
	<path id="XMLID_96_" class="st0" d="M197.4,351.2c1,0,1.5,1,1.5,2.9v17.8c0,0.9,0.2,1.7,0.7,2.2c0.4,0.5,1.1,0.8,2.1,0.8
		s2-0.5,3.2-1.5l0.9,1.2c-2.7,2.5-5.5,3.8-8.2,3.8c-4.2,0-6.3-2.5-6.3-7.6v-14.3c-1.6,0.7-3.6,1.1-5.9,1.3c-0.3,3.2-1.2,6.3-2.7,9.5
		l-2.1-0.6c1-2.4,1.5-5.3,1.5-8.7c-1.3,0-2.4-0.4-3.2-1.1c-0.8-0.8-1.2-1.7-1.2-2.8s0.4-2.1,1.2-2.8c0.8-0.8,1.7-1.2,2.8-1.2
		c1.1,0,2,0.4,2.8,1.2c0.8,0.8,1.1,1.8,1.1,3h1c2.7,0,5.6-0.8,8.6-2.3C196.3,351.5,197,351.2,197.4,351.2z"/>
	<path id="XMLID_98_" class="st0" d="M235.5,352v20c0,0.9,0.2,1.7,0.7,2.2c0.4,0.5,1.1,0.8,2.1,0.8c0.9,0,2-0.5,3.2-1.5l0.9,1.2
		c-2.7,2.5-5.5,3.8-8.2,3.8c-3.3,0-5.3-1.5-6-4.6c-1.8,3-4.4,4.6-7.9,4.6c-3.9,0-6.9-1.3-9-3.8c-2.1-2.6-3.1-5.8-3.1-9.8
		s1.1-7.2,3.3-9.8c2.2-2.6,5.3-3.9,9.3-3.9c3,0,5.4,1.2,7,3.6v-2.9L235.5,352L235.5,352z M217.5,357c-1,1.9-1.4,4.5-1.4,7.8
		c0,3.3,0.5,5.9,1.4,7.8s2.4,2.9,4.4,2.9s3.5-1,4.5-2.9s1.6-4.5,1.6-7.8c0-3.3-0.5-5.9-1.6-7.8c-1-1.9-2.6-2.9-4.5-2.9
		S218.5,355.1,217.5,357z"/>
	<path id="XMLID_101_" class="st0" d="M247.6,352c2.8,0,5.3,0.9,7.6,2.6c1.3-1.2,2.6-2.1,4-2.6s3.1-0.7,5.3-0.7c2.1,0,3.9,0.7,5.2,2
		c1.4,1.4,2,3.2,2,5.5V372c0,0.9,0.2,1.7,0.7,2.2c0.4,0.5,1.1,0.8,2.1,0.8s2-0.5,3.2-1.5l0.9,1.2c-2.7,2.5-5.5,3.8-8.2,3.8
		c-4.2,0-6.3-2.5-6.3-7.6v-13.2c0-1.1-0.3-1.9-1-2.5s-1.6-0.9-2.7-0.9s-2.3,0.5-3.4,1.4s-1.7,2.1-1.7,3.6v18.4h-7.7V354
		c-1.5,0-2.9,0.3-4.1,0.8l-0.7-1.9C244.3,352.3,245.9,352,247.6,352z"/>
	<path id="XMLID_103_" class="st0" d="M279.6,354.8v-2.1h4.2v-7.4h7.7v7.4h5.8v2.1h-5.8V372c0,0.9,0.2,1.7,0.7,2.2
		c0.4,0.5,1.1,0.8,2.1,0.8c0.9,0,2-0.5,3.2-1.5l0.9,1.2c-2.7,2.5-5.5,3.8-8.2,3.8c-4.2,0-6.3-2.5-6.3-7.6v-16.1H279.6z"/>
	<path id="XMLID_105_" class="st0" d="M308.4,356.2c-0.8-1.3-1.2-2.4-1.2-3.4s0.4-1.9,1.2-2.6c0.8-0.8,1.7-1.2,2.8-1.2
		c1.1,0,2,0.4,2.8,1.2s1.2,1.7,1.2,2.7c0,1.1-0.5,2.2-1.6,3.4c2.8,2.1,5,4.1,6.5,6c1.5,2,2.3,4.2,2.3,6.8s-1,4.8-2.9,6.6
		c-2,1.8-4.7,2.7-8.3,2.7c-1.6,0-3.3-0.4-5-1.1c-1.7-0.7-2.9-1.6-3.8-2.7l1.2-1.2c1.5,1.2,3.1,1.8,4.9,1.8c1.7,0,3.2-0.5,4.3-1.4
		c1.1-0.9,1.7-2.4,1.7-4.4c0-3.2-1.2-6.4-3.5-9.9l-7.8,9.7l-1.3-1.1C304.3,364,306.5,360,308.4,356.2z"/>
	<path id="XMLID_107_" class="st0" d="M0.6,405.4v-2.1h12.2l10.2,34h2.6v2.1H12.3v-2.1h3l-1.9-6.3h-14l-1.9,6.3h3v2.1h-8.7v-2.1h2.6
		L4,405.4C4,405.4,0.6,405.4,0.6,405.4z M6.4,407.6l-6.2,21h12.5L6.4,407.6z"/>
	<path id="XMLID_110_" class="st0" d="M27.6,416.5v-2.1h4.2V407h7.7v7.4h5.8v2.1h-5.8v17.2c0,0.9,0.2,1.7,0.7,2.2
		c0.4,0.5,1.1,0.8,2.1,0.8c0.9,0,2-0.5,3.2-1.5l0.9,1.2c-2.7,2.5-5.5,3.8-8.2,3.8c-4.2,0-6.3-2.5-6.3-7.6v-16.1H27.6z"/>
	<path id="XMLID_112_" class="st0" d="M51.8,413.8c1.5-0.6,3-0.9,4.5-0.9s2.7,0.3,3.7,0.9s1.4,1.3,1.4,2.2v15.6c0,1.1,0.3,1.9,1,2.5
		s1.5,0.8,2.6,0.8c2.2,0,4.1-0.9,5.6-2.8c1.6-1.9,2.3-4.3,2.3-7.2c0-1.6-0.3-3.4-1-5.2c-0.6,0.4-1.4,0.6-2.4,0.6s-1.8-0.4-2.6-1.2
		c-0.8-0.8-1.2-1.7-1.2-2.8s0.4-2,1.2-2.8c0.8-0.8,1.7-1.2,2.9-1.2s2.2,0.4,3,1.3s1.4,2,1.8,3.5c0.6,2.5,0.9,5.3,0.9,8.3
		s-0.4,6.1-1.1,9.1c-0.7,3-1.6,5.7-2.8,7.9c-1.1,2.2-2.4,4.1-3.9,5.7c-2.9,3.2-5.9,4.8-9,4.8c-0.8,0-1.5-0.2-2-0.5
		c-0.5-0.4-1.1-1-1.8-2l-2.7-3.7l1.3-1.4c1.6,0.3,3.1,0.4,4.3,0.4c3.8,0,7-1.2,9.4-3.6c2.4-2.4,4.4-6.4,5.8-11.9
		c-2.1,5.9-6,8.8-11.7,8.8c-2.2,0-4.1-0.7-5.6-2.2s-2.3-3.6-2.3-6.3v-15.2c-1.9,0.5-3.3,1.3-4.3,2.5l-1.4-1.6
		C49,415.2,50.3,414.4,51.8,413.8z"/>
	<path id="XMLID_114_" class="st0" d="M86,413.6c3.2,0,5.9,0.9,8.2,2.6c1.8-2.3,4.2-3.4,7.1-3.4c3.9,0,6.9,1.3,9,3.8
		c2.1,2.6,3.1,5.8,3.1,9.8s-1.1,7.2-3.3,9.8s-5.3,3.9-9.3,3.9c-2.9,0-5.3-1.3-7-4v16H86v-36.4c-1.5,0-2.9,0.3-4.1,0.8l-0.7-1.9
		C82.6,414,84.2,413.6,86,413.6z M103.9,434.3c1-1.9,1.4-4.5,1.4-7.8c0-3.3-0.5-5.9-1.4-7.8c-1-1.9-2.4-2.9-4.4-2.9s-3.5,1-4.5,2.9
		c-1,1.9-1.6,4.5-1.6,7.8c0,3.3,0.5,5.9,1.6,7.8c1,1.9,2.6,2.9,4.5,2.9C101.5,437.2,102.9,436.2,103.9,434.3z"/>
	<path id="XMLID_117_" class="st0" d="M126.5,412.9c3.2,0,4.8,1.4,4.8,4.2v16.6c0,0.9,0.2,1.7,0.7,2.2c0.4,0.5,1.1,0.8,2.1,0.8
		c0.9,0,2-0.5,3.2-1.5l0.9,1.2c-2.7,2.5-5.5,3.8-8.2,3.8c-4.2,0-6.3-2.5-6.3-7.6v-17.3c-1.9,0.5-3.3,1.3-4.3,2.5l-1.4-1.6
		c1-1,2.3-1.8,3.8-2.5C123.2,413.2,124.8,412.9,126.5,412.9z M124.6,407.8c-0.8-0.8-1.2-1.8-1.2-2.9c0-1.1,0.4-2.1,1.2-2.9
		c0.8-0.8,1.8-1.2,2.9-1.2c1.1,0,2.1,0.4,2.9,1.2c0.8,0.8,1.2,1.8,1.2,2.9c0,1.1-0.4,2.1-1.2,2.9c-0.8,0.8-1.8,1.2-2.9,1.2
		C126.4,409,125.4,408.6,124.6,407.8z"/>
	<path id="XMLID_120_" class="st0" d="M167.8,452.2h-7.7v-16.1c-1.8,2.7-4.3,4.1-7.6,4.1c-3.9,0-6.9-1.3-9-3.8
		c-2.1-2.6-3.1-5.8-3.1-9.8s1.1-7.2,3.3-9.8c2.2-2.6,5.3-3.9,9.3-3.9c3,0,5.4,1.2,7,3.6v-2.9h7.7v38.6H167.8z M149.9,418.7
		c-1,1.9-1.4,4.5-1.4,7.8c0,3.3,0.5,5.9,1.4,7.8s2.4,2.9,4.4,2.9s3.5-1,4.5-2.9s1.6-4.5,1.6-7.8c0-3.3-0.5-5.9-1.6-7.8
		s-2.6-2.9-4.5-2.9C152.3,415.8,150.9,416.8,149.9,418.7z"/>
	<path id="XMLID_123_" class="st0" d="M187.1,416v17.6c0,1.1,0.3,1.9,1,2.5s1.6,0.9,2.7,0.9c1.2,0,2.3-0.5,3.4-1.4
		c1.1-1,1.6-2.2,1.6-3.8v-18.2h7.7v20c0,0.9,0.2,1.7,0.7,2.2c0.4,0.5,1.1,0.8,2.1,0.8s2-0.5,3.2-1.5l0.9,1.2
		c-2.7,2.5-5.5,3.8-8.4,3.8c-2.8,0-4.7-1.3-5.7-3.8c-1.3,1.4-2.7,2.4-4.1,3s-3.2,0.8-5.4,0.8s-4-0.7-5.3-2c-1.4-1.4-2-3.2-2-5.5
		v-17.3c-1.9,0.5-3.3,1.3-4.3,2.5l-1.4-1.6c1-1,2.3-1.8,3.8-2.5c1.5-0.6,3-0.9,4.5-0.9s2.7,0.3,3.7,0.9
		C186.6,414.4,187.1,415.1,187.1,416z"/>
	<path id="XMLID_125_" class="st0" d="M228.6,424.9c1.2-1.5,1.8-3,1.8-4.5s-0.3-2.7-1-3.5c-0.7-0.8-1.7-1.2-3-1.2s-2.6,1-3.9,2.9
		s-1.8,4.5-1.8,7.7c0,3.2,0.6,5.8,1.7,7.8c1.2,2,2.8,2.9,5,2.9c3.3,0,6.1-1.3,8.4-3.9l1.4,0.9c-1.2,1.8-2.7,3.3-4.6,4.4
		c-1.9,1.1-4.1,1.7-6.5,1.7c-4.1,0-7.3-1.3-9.8-4c-2.4-2.7-3.6-5.9-3.6-9.7c0-3.8,1.3-7,3.9-9.6s6.2-3.9,10.8-3.9
		c3,0,5.4,0.7,7.1,2.1c1.7,1.4,2.6,3.2,2.6,5.3c0,2.2-1,4.2-2.9,6s-4.4,2.8-7.5,2.8c-1.1,0-2.1-0.1-3.1-0.4l-0.1-1.2
		C225.6,427.3,227.3,426.4,228.6,424.9z"/>
	<path id="XMLID_127_" class="st0" d="M249,417.9c-0.8-1.3-1.2-2.4-1.2-3.4s0.4-1.9,1.2-2.6c0.8-0.8,1.7-1.2,2.8-1.2
		c1.1,0,2,0.4,2.8,1.2c0.8,0.8,1.2,1.7,1.2,2.7c0,1.1-0.5,2.2-1.6,3.4c2.8,2.1,5,4.1,6.5,6c1.5,2,2.3,4.2,2.3,6.8s-1,4.8-2.9,6.6
		c-2,1.8-4.7,2.7-8.3,2.7c-1.6,0-3.3-0.4-5-1.1c-1.7-0.7-2.9-1.6-3.8-2.7l1.2-1.2c1.5,1.2,3.1,1.8,4.9,1.8c1.7,0,3.2-0.5,4.3-1.4
		c1.1-0.9,1.7-2.4,1.7-4.4c0-3.2-1.2-6.4-3.5-9.9l-7.8,9.7l-1.3-1.1C244.9,425.6,247.1,421.6,249,417.9z"/>
</g>
<path id="XMLID_419_" class="st0" d="M-39.6,366.5c-1.2-3.3-9.5-25.6-9.5-25.6h-0.1l-0.1,0.1l5.2,21.4c0,0,0.1,0.3-0.2,0.4
	s-0.4-0.2-0.4-0.2l-7.6-20.8h-0.1l-0.1,0.1l5.1,21.4c0,0,0.1,0.3-0.2,0.4s-0.4-0.2-0.4-0.2l-7.4-20.8h-0.1l-0.1,0.1l5,21.4
	c0,0,0.1,0.3-0.2,0.4s-0.4-0.2-0.4-0.2l-7.4-20.7h-0.1h-0.1c0,0,5.2,23.2,6,26.6c0.1,0.3,0.3,0.5,0.6,0.5c1.1,0,3.8,0.6,6.3,3.8
	c2.7,3.3,12.5,48.2,14.5,58c0.5,2.4,2.4,5.5,6.2,6.7l0,0c2.5-3,2.4-6.7,1.5-9c-3.7-9.3-19.9-52.4-19.4-56.6c0.4-4,2.4-6,3.3-6.6
	C-39.6,367-39.5,366.8-39.6,366.5z M-30.8,432.1c-0.4-1.9-0.3-2.6-0.3-2.6s0.6,3.1,1.5,4.6c0.7,1.3,1.7,2.6,4.1,4.4
	C-28.8,437.2-30.3,434.4-30.8,432.1z M-40.4,367.1c-0.9,0.6-2.9,2.4-3.3,6.5c0,0-0.1-2.9,1.9-5.8c0.3-0.4,1-1.3,0.9-2.1
	c-0.2-0.9-0.6-2.3-1.6-5.7c1.1,3,2.1,5.4,2.4,6.4C-40,366.6-40.1,366.9-40.4,367.1z"/>
<path id="XMLID_402_" class="st0" d="M-87.7,432.4c1.2-5,7-25,13.2-43.4c7.9-18.2,13.9-39,15.2-42.3c1.5-3.5-1.2-5-5.2-1.4
	c-6.6,5.9-16,28-14.9,41.3c0,0.3,0,0.4,0,0.7c-0.7,6-11.9,33.8-15.9,42.5c-1,2.3-1.3,5.9,1.1,9l0,0
	C-90.3,437.8-88.3,434.8-87.7,432.4z M-65.7,347.7c0,0,0.2-0.5,1.2-1.4c2.4-2.3,4.2-2.8,5.1-2c-1-0.4-2.2,0.1-3.4,0.9
	C-64.4,346.2-65.7,347.7-65.7,347.7z M-78.5,388.4c-0.6-0.2-0.5-0.9-0.5-1.1c0,0,0.2,0.4,0.7,0.6l3.2,1.1c0.4,0.1,0.2,0.7-0.2,0.6
	L-78.5,388.4z M-93.7,437.9c2.6-1.6,3.6-2.9,4.3-4.2c0.9-1.5,1.7-4.6,1.7-4.6s0,0.6-0.5,2.5C-88.7,434-90.4,436.7-93.7,437.9z"/>
<path id="XMLID_140_" class="st0" d="M-46.3,403.5c2,2,5.4,3.2,9.2,3.2c6.1,0,11.1-3.3,11.1-7.4s-5-7.4-11.1-7.4
	c-3.8,0-7.1,1.3-9.1,3.2c-0.2,0-0.3,0-0.5,0s-0.3,0.1-0.4,0.3c-0.2,0.6-0.9,2.1-3.2,3.1c-2.4,1-26.8-1-32.9-1.6
	c-1.5-0.1-3.7,0.5-5,2.5l0,0c1.4,2,3.5,2.6,5,2.5c6.1-0.6,30.5-2.6,32.9-1.6c2.3,0.9,3,2.4,3.2,3.1c0.1,0.2,0.2,0.3,0.4,0.3
	C-46.7,403.5-46.5,403.5-46.3,403.5z M-46.8,395.5c0.1-0.2,0.2-0.3,0.4-0.3c0.1,0,0.3,0,0.4,0c1.9-1.8,5-3,8.5-3
	c-4.1,0.3-6.1,1.6-8,3.4c-0.2,0-0.3,0-0.4,0c-0.2,0-0.3,0.1-0.4,0.3c-1.3,1.7-2.3,2.3-3.5,2.6C-47.6,397.5-46.9,396.1-46.8,395.5z
	 M-84.4,401c1,0.2,3,0.1,3,0.1s-0.4,0.1-1.6,0.2c-1.4,0.1-3.4-0.3-4.7-2C-86.3,400.5-85.3,400.8-84.4,401z M-46.9,402.9
	c-0.2-0.5-0.6-1.4-1.7-2.2c1.4,0.9,1.9,1.9,2.1,2.5l0,0C-46.8,403.2-46.9,403.1-46.9,402.9z M-26.7,398.7c0,0.2,0,0.4,0,0.6
	c0,3.8-4.6,6.9-10.3,6.9c-2.4,0-4.6-0.5-6.4-1.5c1.6,0.7,4,1,6,1C-31.4,405.8-26.7,402.8-26.7,398.7z"/>
</svg>
